<svg width="24" height="24" viewBox="0 0 24 24" fill="none" xmlns="http://www.w3.org/2000/svg">
<path d="M9.07323 18.6146H5.59031C5.04072 18.6146 4.59518 18.1691 4.59518 17.6195V5.92678M20.0196 5.92678V3.68776C20.0196 3.13817 19.574 2.69263 19.0245 2.69263H16.0391M20.0196 5.92678V9.16093M20.0196 5.92678H4.59518M4.59518 5.92678V3.68776C4.59518 3.13817 5.04072 2.69263 5.59031 2.69263H8.07811M8.07811 2.69263V1.19995M8.07811 2.69263V4.18532M8.07811 2.69263H16.0391M16.0391 2.69263V1.19995M16.0391 2.69263V4.18532M15.5415 12.6439V15.6292L18.0293 17.1219M21.5123 15.6292C21.5123 18.9268 18.8391 21.6 15.5415 21.6C12.244 21.6 9.57079 18.9268 9.57079 15.6292C9.57079 12.3317 12.244 9.65849 15.5415 9.65849C18.8391 9.65849 21.5123 12.3317 21.5123 15.6292Z" stroke="#1EA1F1" stroke-width="0.96" stroke-linecap="round"/>
</svg>
