<svg width="22" height="23" viewBox="0 0 22 23" fill="none" xmlns="http://www.w3.org/2000/svg">
<path d="M5.75718 13.0572C7.70004 16.9429 14.0143 16.9429 15.9572 13.0572M21.3 11.6C21.3 17.2333 16.7333 21.8 11.1 21.8C5.46673 21.8 0.90004 17.2333 0.90004 11.6C0.90004 5.96672 5.46673 1.40002 11.1 1.40002C16.7333 1.40002 21.3 5.96672 21.3 11.6ZM9.6429 8.68574C9.6429 9.4905 8.99051 10.1429 8.18575 10.1429C7.381 10.1429 6.72861 9.4905 6.72861 8.68574C6.72861 7.88098 7.381 7.2286 8.18575 7.2286C8.99051 7.2286 9.6429 7.88098 9.6429 8.68574ZM15.4715 8.68574C15.4715 9.4905 14.8191 10.1429 14.0143 10.1429C13.2096 10.1429 12.5572 9.4905 12.5572 8.68574C12.5572 7.88098 13.2096 7.2286 14.0143 7.2286C14.8191 7.2286 15.4715 7.88098 15.4715 8.68574Z" stroke="#1EA1F1" stroke-width="0.96" stroke-linecap="round"/>
</svg>
