<svg width="21" height="22" viewBox="0 0 21 22" fill="none" xmlns="http://www.w3.org/2000/svg">
<path d="M7.079 11H9.10006V14.0316H7.079C5.40471 14.0316 4.04743 12.6743 4.04743 11C4.04743 9.32575 5.40471 7.96847 7.079 7.96847H9.10006V8.4375M11.5001 14.5369V7.49933M17.5632 7.96847H14.0264V11M14.0264 14.5369V11M14.0264 11H16.0474M2.92111 20.6H18.079C19.1952 20.6 20.1001 19.6952 20.1001 18.579V3.42108C20.1001 2.30488 19.1952 1.40002 18.079 1.40002H2.92111C1.80491 1.40002 0.900055 2.30488 0.900055 3.42108V18.579C0.900055 19.6952 1.80491 20.6 2.92111 20.6Z" stroke="#1EA1F1" stroke-width="0.96"/>
</svg>
