<svg width="17" height="16" viewBox="0 0 17 16" fill="none" xmlns="http://www.w3.org/2000/svg">
<path d="M14.634 6.28521C14.634 9.33866 11.2021 11.7906 9.30023 12.915C8.53449 13.3677 7.59948 13.3677 6.83374 12.915C4.93183 11.7906 1.49998 9.33866 1.49998 6.28521C1.49998 3.06133 4.11344 -0.2818 8.06698 4.0962C12.0205 -0.2818 14.634 3.06133 14.634 6.28521Z" stroke="#8899A6" stroke-width="0.8"/>
<path d="M14.634 6.28521C14.634 9.33866 11.2021 11.7906 9.30023 12.915C8.53449 13.3677 7.59948 13.3677 6.83374 12.915C4.93183 11.7906 1.49998 9.33866 1.49998 6.28521C1.49998 3.06133 4.11344 -0.2818 8.06698 4.0962C12.0205 -0.2818 14.634 3.06133 14.634 6.28521Z" stroke="#8899A6" stroke-width="0.8"/>
</svg>
