<svg width="24" height="24" viewBox="0 0 24 24" fill="none" xmlns="http://www.w3.org/2000/svg">
<g clip-path="url(#clip0_915_1657)">
<path d="M4.99988 8V5M4.99988 2V5M4.99988 5H7.99988H1.99988M7.99988 17.5V19.75M7.99988 22V19.75M7.99988 19.75H10.4999H5.49988M12.4068 9.03581L6.46591 11.3208C6.29749 11.3855 6.29421 11.6226 6.46078 11.692L11.9182 13.966C11.9702 13.9876 12.0107 14.0303 12.0296 14.0833L14.3115 20.4726C14.3747 20.6496 14.625 20.6496 14.6882 20.4726L16.9701 14.0833C16.9891 14.0303 17.0295 13.9876 17.0815 13.966L22.5568 11.6846C22.7209 11.6162 22.7209 11.3838 22.5568 11.3154L17.0815 9.03403C17.0295 9.01236 16.9891 8.96975 16.9701 8.91668L14.7094 2.58665C14.644 2.40352 14.3822 2.412 14.3287 2.59897L12.5273 8.90408C12.51 8.96448 12.4654 9.01326 12.4068 9.03581Z" stroke="#1EA1F1" stroke-linecap="round" stroke-linejoin="round"/>
</g>
<defs>
<clipPath id="clip0_915_1657">
<rect width="24" height="24" fill="white"/>
</clipPath>
</defs>
</svg>
