<svg width="22" height="22" viewBox="0 0 22 22" fill="none" xmlns="http://www.w3.org/2000/svg">
<path d="M15.8001 20.6H18.2001C19.5256 20.6 20.6001 19.5255 20.6001 18.2V12.8M15.8001 20.6L10.8501 14M15.8001 20.6H3.80009C2.4746 20.6 1.40009 19.5255 1.40009 18.2V17.6M20.6001 12.8V3.80002C20.6001 2.47454 19.5256 1.40002 18.2001 1.40002H3.80009C2.4746 1.40002 1.40009 2.47454 1.40009 3.80002V17.6M20.6001 12.8L16.7339 8.93381C16.2332 8.43318 15.4103 8.47255 14.9597 9.01868L10.8501 14M1.40009 17.6L7.62383 11.8949C8.14674 11.4156 8.96908 11.492 9.3947 12.0595L10.8501 14" stroke="#1EA1F1" stroke-width="0.96"/>
</svg>
